<?xml version="1.0" encoding="UTF-8"?>
<svg id="Layer_1" xmlns="http://www.w3.org/2000/svg" version="1.1" viewBox="0 0 47 21">
  <!-- Generator: Adobe Illustrator 29.5.1, SVG Export Plug-In . SVG Version: 2.1.0 Build 141)  -->
  <defs>
    <style>
      .st0 {
        fill: red;
      }
    </style>
  </defs>
  <path class="st0" d="M.5.5h2.5c.8,0,1.4,0,1.8.2.4.1.7.4,1,.7.2.4.4,1,.4,1.8s0,.9-.3,1.2c-.2.2-.5.4-1,.5.6.1,1,.3,1.2.6.2.3.3.8.3,1.4v.9c0,.6,0,1.1-.2,1.4-.1.3-.4.5-.7.6-.3.1-1,.2-2,.2H.5V.5ZM3,2.1v2.1c.1,0,.2,0,.2,0,.2,0,.4,0,.5-.2,0-.1,0-.5,0-1s0-.5,0-.6c0-.1-.1-.2-.2-.2,0,0-.3,0-.5,0ZM3,5.7v2.7c.3,0,.6,0,.7-.2,0,0,.1-.3.1-.7v-.9c0-.4,0-.7-.1-.7,0,0-.3-.1-.7-.1Z"/>
  <path class="st0" d="M7.1.5h4.1v1.9h-1.6v1.8h1.5v1.8h-1.5v2.1h1.8v1.9h-4.3V.5Z"/>
  <path class="st0" d="M14.6.5v7.6h1.5v1.9h-4V.5h2.5Z"/>
  <path class="st0" d="M19.2.5v9.5h-2.5V.5h2.5Z"/>
  <path class="st0" d="M20.1.5h4.1v1.9h-1.6v1.8h1.5v1.8h-1.5v2.1h1.8v1.9h-4.3V.5Z"/>
  <path class="st0" d="M31,.5l-1.3,9.5h-3.7l-1.4-9.5h2.6c.3,2.6.5,4.8.6,6.6.1-1.8.3-3.4.4-4.9l.2-1.8h2.6Z"/>
  <path class="st0" d="M31.4.5h4.1v1.9h-1.6v1.8h1.5v1.8h-1.5v2.1h1.8v1.9h-4.3V.5Z"/>
  <path class="st0" d="M41,.5v9.5h-2.5V.5h2.5Z"/>
  <path class="st0" d="M47,.5v1.9h-1.5v7.6h-2.5V2.4h-1.5V.5h5.4Z"/>
  <path class="st0" d="M6.1,16.5c0,1,0,1.6,0,2,0,.4-.2.8-.4,1.1-.2.3-.6.6-1,.8-.4.2-.9.3-1.4.3s-1,0-1.4-.2c-.4-.2-.7-.4-1-.8-.2-.3-.4-.7-.4-1.1,0-.4,0-1.1,0-2.1v-1.6c0-1,0-1.6,0-2,0-.4.2-.8.4-1.1.2-.3.6-.6,1-.8.4-.2.9-.3,1.4-.3s1,0,1.4.3c.4.2.7.4,1,.7.2.3.4.7.4,1.1,0,.4,0,1.1,0,2.1v1.6ZM3.7,13.3c0-.4,0-.7,0-.8,0-.1-.1-.2-.3-.2s-.2,0-.3.2c0,0,0,.4,0,.9v4.4c0,.6,0,.9,0,1,0,.1.2.2.3.2s.3,0,.3-.2c0-.1,0-.5,0-1.1v-4.4Z"/>
  <path class="st0" d="M7.1,10.9h1.7c1.2,0,2,0,2.4.1.4,0,.8.3,1,.7.3.4.4,1,.4,1.8s0,1.2-.3,1.5c-.2.3-.5.4-1.1.5.5.1.8.3,1,.5.2.2.3.4.3.6,0,.2,0,.6,0,1.4v2.5h-2.3v-3.2c0-.5,0-.8-.1-.9,0-.1-.3-.2-.6-.2v4.3h-2.5v-9.5ZM9.5,12.5v2.1c.3,0,.5,0,.6-.1.1,0,.2-.3.2-.7v-.5c0-.3,0-.5-.2-.6-.1,0-.3-.1-.6-.1Z"/>
  <path class="st0" d="M21.2,10.9v9.5h-2.2l-1.3-4.3v4.3h-2.1v-9.5h2.1l1.4,4.3v-4.3h2.1Z"/>
  <path class="st0" d="M27.8,16.5c0,1,0,1.6,0,2,0,.4-.2.8-.4,1.1-.2.3-.6.6-1,.8-.4.2-.9.3-1.4.3s-1,0-1.4-.2c-.4-.2-.7-.4-1-.8-.2-.3-.4-.7-.4-1.1,0-.4,0-1.1,0-2.1v-1.6c0-1,0-1.6,0-2,0-.4.2-.8.4-1.1.2-.3.6-.6,1-.8.4-.2.9-.3,1.4-.3s1,0,1.4.3c.4.2.7.4,1,.7.2.3.4.7.4,1.1,0,.4,0,1.1,0,2.1v1.6ZM25.3,13.3c0-.4,0-.7,0-.8,0-.1-.1-.2-.3-.2s-.2,0-.3.2c0,0,0,.4,0,.9v4.4c0,.6,0,.9,0,1,0,.1.2.2.3.2s.3,0,.3-.2c0-.1,0-.5,0-1.1v-4.4Z"/>
  <path class="st0" d="M33.7,10.9v1.9h-1.5v7.6h-2.5v-7.6h-1.5v-1.9h5.4Z"/>
</svg>