<?xml version="1.0" encoding="UTF-8"?>
<svg width="844" height="959" viewBox="0 0 844 959" fill="none" xmlns="http://www.w3.org/2000/svg">
<defs>
    <filter id="blur-filter" x="-50%" y="-50%" width="200%" height="200%">
        <feGaussianBlur in="SourceGraphic" stdDeviation="3"/>
    </filter>
    <clipPath id="clip0_198_135">
        <rect width="844" height="959" fill="white"/>
    </clipPath>
</defs>
<g clip-path="url(#clip0_198_135)" filter="url(#blur-filter)">
<path d="M1.27881 0H45.9422C60.0477 0 70.7381 2.9499 78.0053 8.85885C85.2726 14.7678 91.1397 26.714 95.6069 44.7156C100.074 62.7173 102.308 91.7124 102.308 131.71C102.308 158.763 100.73 177.617 97.5734 188.28C94.4173 198.944 88.194 207.134 78.9117 212.851C89.2622 219.144 96.2786 229.588 99.9688 244.173C103.651 258.766 105.496 281.12 105.496 311.26V354.161C105.496 385.438 104.169 408.606 101.506 423.676C98.8439 438.747 94.6115 449.044 88.801 454.568C82.9904 460.101 71.078 462.859 53.0638 462.859H1.27881V0ZM46.0474 79.1891V182.115C47.9654 181.922 49.4544 181.831 50.5146 181.831C54.9089 181.831 57.7089 178.927 58.9148 173.109C60.1206 167.301 60.7194 150.665 60.7194 123.218C60.7194 108.734 60.2258 98.5833 59.2304 92.766C58.235 86.9578 56.9401 83.2842 55.3459 81.7634C53.7516 80.2426 50.6521 79.3815 46.0393 79.1891H46.0474ZM46.0474 254.158V383.67C52.3597 383.102 56.3817 380.436 58.1217 375.663C59.8616 370.899 60.7275 359.182 60.7275 340.493V297.326C60.7275 277.501 59.9425 265.5 58.3887 261.304C56.8268 257.117 52.7158 254.726 46.0555 254.158H46.0474Z" fill="#DF0000"/>
<path d="M121.56 0H196.215V92.6285H166.329V180.402H194.297V268.459H166.329V370.239H199.193V462.868H121.56V0Z" fill="#DF0000"/>
<path d="M256.837 0V370.23H284.06V462.859H212.06V0H256.837Z" fill="#DF0000"/>
<path d="M339.681 0V462.859H294.905V0H339.681Z" fill="#DF0000"/>
<path d="M357.655 0H432.31V92.6285H402.424V180.402H430.392V268.459H402.424V370.239H435.288V462.868H357.655V0Z" fill="#DF0000"/>
<path d="M554.623 0L531.834 462.859H463.823L437.951 0H485.171C490.658 127.496 494.575 235.378 496.922 323.636C499.236 234.443 501.689 155.254 504.286 86.0783L507.394 0.00916116H554.615L554.623 0Z" fill="#DF0000"/>
<path d="M562.173 0H636.828V92.6285H606.941V180.402H634.91V268.459H606.941V370.239H639.806V462.868H562.173V0Z" fill="#DF0000"/>
<path d="M735.842 0V462.859H691.065V0H735.842Z" fill="#DF0000"/>
<path d="M844 0V92.6285H817.416V462.859H772.639V92.6285H746.16V0H844Z" fill="#DF0000"/>
<path d="M103.586 757.445C103.586 803.956 103.173 836.882 102.364 856.221C101.547 875.569 98.9973 893.241 94.7082 909.255C90.4191 925.268 84.6248 937.563 77.3171 946.138C70.0175 954.712 61.504 959 51.7928 959C42.0816 959 34.2965 954.951 26.9565 946.852C19.6164 938.754 13.7169 926.606 9.24971 910.4C4.78256 894.203 2.12816 876.568 1.27034 857.513C0.42061 838.457 -0.00830078 805.101 -0.00830078 757.445V678.256C-0.00830078 631.754 0.396332 598.829 1.21369 579.48C2.03105 560.141 4.58024 542.46 8.86935 526.446C13.1585 510.433 18.9528 498.147 26.2605 489.563C33.5601 480.989 42.0735 476.701 51.7847 476.701C61.0023 476.701 69.2811 480.75 76.613 488.849C83.9531 496.947 89.8526 509.104 94.3198 525.301C98.7869 541.507 101.441 559.133 102.299 578.189C103.149 597.253 103.578 630.609 103.578 678.247V757.436L103.586 757.445ZM58.8092 605.351C58.8092 583.814 58.3641 570.044 57.482 564.044C56.5918 558.043 54.7709 555.038 52.0032 555.038C49.6645 555.038 47.876 557.466 46.6297 562.331C45.3915 567.195 44.7684 581.532 44.7684 605.361V821.491C44.7684 848.37 45.173 864.951 45.9904 871.236C46.8078 877.521 48.7014 880.672 51.6795 880.672C54.6576 880.672 56.6808 877.053 57.5305 869.807C58.3803 862.56 58.8092 845.319 58.8092 818.055V605.351Z" fill="#DF0000"/>
<path d="M120.281 486.421H151.972C173.102 486.421 187.402 488.62 194.888 492.999C202.365 497.387 208.467 508.582 213.177 526.593C217.895 544.604 220.25 573.333 220.25 612.79C220.25 648.812 218.583 673.025 215.249 685.411C211.914 697.806 205.359 705.236 195.575 707.709C204.437 713.618 210.393 721.533 213.444 731.437C216.495 741.349 218.389 750.446 219.133 758.737C219.878 767.028 220.25 789.857 220.25 827.207V949.28H178.67V795.473C178.67 770.701 177.941 755.356 176.493 749.447C175.036 743.548 171.225 740.589 165.058 740.589V949.289H120.281V486.43V486.421ZM165.058 565.61V668.536C170.092 668.536 173.62 666.676 175.643 662.957C177.666 659.237 178.678 647.191 178.678 626.789V601.339C178.678 586.663 177.699 577.043 175.756 572.463C173.806 567.891 170.245 565.601 165.066 565.601L165.058 565.61Z" fill="#DF0000"/>
<path d="M375.953 486.421V949.28H336.711L313.421 738.857V949.28H275.984V486.421H313.421L338.516 694.838V486.421H375.953Z" fill="#DF0000"/>
<path d="M496.234 757.445C496.234 803.956 495.821 836.882 495.012 856.221C494.194 875.569 491.645 893.241 487.356 909.255C483.067 925.268 477.273 937.563 469.965 946.138C462.665 954.712 454.152 959 444.441 959C434.73 959 426.944 954.951 419.604 946.852C412.264 938.754 406.365 926.606 401.898 910.4C397.431 894.203 394.776 876.568 393.918 857.513C393.069 838.457 392.64 805.101 392.64 757.445V678.256C392.64 631.754 393.044 598.829 393.862 579.48C394.679 560.141 397.228 542.46 401.517 526.446C405.806 510.433 411.601 498.147 418.908 489.563C426.208 480.989 434.721 476.701 444.433 476.701C453.65 476.701 461.929 480.75 469.261 488.849C476.601 496.947 482.501 509.104 486.968 525.301C491.435 541.507 494.089 559.133 494.947 578.189C495.797 597.253 496.226 630.609 496.226 678.247V757.436L496.234 757.445ZM451.457 605.351C451.457 583.814 451.012 570.044 450.13 564.044C449.24 558.043 447.419 555.038 444.651 555.038C442.312 555.038 440.524 557.466 439.278 562.331C438.039 567.195 437.416 581.532 437.416 605.361V821.491C437.416 848.37 437.821 864.951 438.638 871.236C439.456 877.521 441.349 880.672 444.327 880.672C447.306 880.672 449.329 877.053 450.179 869.807C451.028 862.56 451.457 845.319 451.457 818.055V605.351Z" fill="#DF0000"/>
<path d="M603.114 486.421V579.05H576.529V949.28H531.753V579.05H505.273V486.421H603.114Z" fill="#DF0000"/>
</g>
</svg>