<?xml version="1.0" encoding="UTF-8"?>
<svg viewBox="0 0 47 23" fill="none" preserveAspectRatio="none" xmlns="http://www.w3.org/2000/svg">
<path d="M0.492188 0.513672H2.95312C3.73047 0.513672 4.31836 0.574219 4.7168 0.695312C5.11914 0.816406 5.44336 1.0625 5.68945 1.43359C5.93555 1.80078 6.05859 2.39453 6.05859 3.21484C6.05859 3.76953 5.9707 4.15625 5.79492 4.375C5.62305 4.59375 5.28125 4.76172 4.76953 4.87891C5.33984 5.00781 5.72656 5.22266 5.92969 5.52344C6.13281 5.82031 6.23438 6.27734 6.23438 6.89453V7.77344C6.23438 8.41406 6.16016 8.88867 6.01172 9.19727C5.86719 9.50586 5.63477 9.7168 5.31445 9.83008C4.99414 9.94336 4.33789 10 3.3457 10H0.492188V0.513672ZM2.95898 2.13672V4.24609C3.06445 4.24219 3.14648 4.24023 3.20508 4.24023C3.44727 4.24023 3.60156 4.18164 3.66797 4.06445C3.73438 3.94336 3.76758 3.60156 3.76758 3.03906C3.76758 2.74219 3.74023 2.53516 3.68555 2.41797C3.63086 2.29688 3.55859 2.2207 3.46875 2.18945C3.38281 2.1582 3.21289 2.14062 2.95898 2.13672ZM2.95898 5.72266V8.37695C3.30664 8.36523 3.52734 8.31055 3.62109 8.21289C3.71875 8.11523 3.76758 7.875 3.76758 7.49219V6.60742C3.76758 6.20117 3.72461 5.95508 3.63867 5.86914C3.55273 5.7832 3.32617 5.73438 2.95898 5.72266Z" fill="red"/>
<path d="M7.125 0.513672H11.2383V2.41211H9.5918V4.21094H11.1328V6.01562H9.5918V8.10156H11.4023V10H7.125V0.513672Z" fill="red"/>
<path d="M14.584 0.513672V8.10156H16.084V10H12.1172V0.513672H14.584Z" fill="red"/>
<path d="M19.1543 0.513672V10H16.6875V0.513672H19.1543Z" fill="red"/>
<path d="M20.1445 0.513672H24.2578V2.41211H22.6113V4.21094H24.1523V6.01562H22.6113V8.10156H24.4219V10H20.1445V0.513672Z" fill="red"/>
<path d="M30.9961 0.513672L29.7422 10H25.998L24.5742 0.513672H27.1758C27.4766 3.12695 27.6914 5.33594 27.8203 7.14062C27.9492 5.31641 28.084 3.69531 28.2246 2.27734L28.3945 0.513672H30.9961Z" fill="red"/>
<path d="M31.418 0.513672H35.5312V2.41211H33.8848V4.21094H35.4258V6.01562H33.8848V8.10156H35.6953V10H31.418V0.513672Z" fill="red"/>
<path d="M40.998 0.513672V10H38.5312V0.513672H40.998Z" fill="red"/>
<path d="M46.957 0.513672V2.41211H45.4922V10H43.0254V2.41211H41.5664V0.513672H46.957Z" fill="red"/>
<path d="M6.12891 18.0684C6.12891 19.0215 6.10547 19.6973 6.05859 20.0957C6.01562 20.4902 5.875 20.8516 5.63672 21.1797C5.40234 21.5078 5.08398 21.7598 4.68164 21.9355C4.2793 22.1113 3.81055 22.1992 3.27539 22.1992C2.76758 22.1992 2.31055 22.1172 1.9043 21.9531C1.50195 21.7852 1.17773 21.5352 0.931641 21.2031C0.685547 20.8711 0.539062 20.5098 0.492188 20.1191C0.445312 19.7285 0.421875 19.0449 0.421875 18.0684V16.4453C0.421875 15.4922 0.443359 14.8184 0.486328 14.4238C0.533203 14.0254 0.673828 13.6621 0.908203 13.334C1.14648 13.0059 1.4668 12.7539 1.86914 12.5781C2.27148 12.4023 2.74023 12.3145 3.27539 12.3145C3.7832 12.3145 4.23828 12.3984 4.64062 12.5664C5.04688 12.7305 5.37305 12.9785 5.61914 13.3105C5.86523 13.6426 6.01172 14.0039 6.05859 14.3945C6.10547 14.7852 6.12891 15.4688 6.12891 16.4453V18.0684ZM3.66211 14.9512C3.66211 14.5098 3.63672 14.2285 3.58594 14.1074C3.53906 13.9824 3.43945 13.9199 3.28711 13.9199C3.1582 13.9199 3.05859 13.9707 2.98828 14.0723C2.92188 14.1699 2.88867 14.4629 2.88867 14.9512V19.3809C2.88867 19.9316 2.91016 20.2715 2.95312 20.4004C3 20.5293 3.10547 20.5938 3.26953 20.5938C3.4375 20.5938 3.54492 20.5195 3.5918 20.3711C3.63867 20.2227 3.66211 19.8691 3.66211 19.3105V14.9512Z" fill="red"/>
<path d="M7.05469 12.5137H8.80078C9.96484 12.5137 10.752 12.5586 11.1621 12.6484C11.5762 12.7383 11.9121 12.9688 12.1699 13.3398C12.4316 13.707 12.5625 14.2949 12.5625 15.1035C12.5625 15.8418 12.4707 16.3379 12.2871 16.5918C12.1035 16.8457 11.7422 16.998 11.2031 17.0488C11.6914 17.1699 12.0195 17.332 12.1875 17.5352C12.3555 17.7383 12.459 17.9258 12.498 18.0977C12.541 18.2656 12.5625 18.7324 12.5625 19.498V22H10.2715V18.8477C10.2715 18.3398 10.2305 18.0254 10.1484 17.9043C10.0703 17.7832 9.86133 17.7227 9.52148 17.7227V22H7.05469V12.5137ZM9.52148 14.1367V16.2461C9.79883 16.2461 9.99219 16.209 10.1016 16.1348C10.2148 16.0566 10.2715 15.8086 10.2715 15.3906V14.8691C10.2715 14.5684 10.2168 14.3711 10.1074 14.2773C10.002 14.1836 9.80664 14.1367 9.52148 14.1367Z" fill="red"/>
<path d="M21.1523 12.5137V22H18.9902L17.707 17.6875V22H15.6445V12.5137H17.707L19.0898 16.7852V12.5137H21.1523Z" fill="red"/>
<path d="M27.7852 18.0684C27.7852 19.0215 27.7617 19.6973 27.7148 20.0957C27.6719 20.4902 27.5312 20.8516 27.293 21.1797C27.0586 21.5078 26.7402 21.7598 26.3379 21.9355C25.9355 22.1113 25.4668 22.1992 24.9316 22.1992C24.4238 22.1992 23.9668 22.1172 23.5605 21.9531C23.1582 21.7852 22.834 21.5352 22.5879 21.2031C22.3418 20.8711 22.1953 20.5098 22.1484 20.1191C22.1016 19.7285 22.0781 19.0449 22.0781 18.0684V16.4453C22.0781 15.4922 22.0996 14.8184 22.1426 14.4238C22.1895 14.0254 22.3301 13.6621 22.5645 13.334C22.8027 13.0059 23.123 12.7539 23.5254 12.5781C23.9277 12.4023 24.3965 12.3145 24.9316 12.3145C25.4395 12.3145 25.8945 12.3984 26.2969 12.5664C26.7031 12.7305 27.0293 12.9785 27.2754 13.3105C27.5215 13.6426 27.668 14.0039 27.7148 14.3945C27.7617 14.7852 27.7852 15.4688 27.7852 16.4453V18.0684ZM25.3184 14.9512C25.3184 14.5098 25.293 14.2285 25.2422 14.1074C25.1953 13.9824 25.0957 13.9199 24.9434 13.9199C24.8145 13.9199 24.7148 13.9707 24.6445 14.0723C24.5781 14.1699 24.5449 14.4629 24.5449 14.9512V19.3809C24.5449 19.9316 24.5664 20.2715 24.6094 20.4004C24.6562 20.5293 24.7617 20.5938 24.9258 20.5938C25.0938 20.5938 25.2012 20.5195 25.248 20.3711C25.2949 20.2227 25.3184 19.8691 25.3184 19.3105V14.9512Z" fill="red"/>
<path d="M33.6797 12.5137V14.4121H32.2148V22H29.748V14.4121H28.2891V12.5137H33.6797Z" fill="red"/>
</svg>